<?xml version="1.0" encoding="utf-8"?>
<!-- Generator: Adobe Illustrator 18.1.1, SVG Export Plug-In . SVG Version: 6.00 Build 0)  -->
<!DOCTYPE svg PUBLIC "-//W3C//DTD SVG 1.1//EN" "http://www.w3.org/Graphics/SVG/1.1/DTD/svg11.dtd">
<svg version="1.1" id="Layer_1" xmlns="http://www.w3.org/2000/svg" xmlns:xlink="http://www.w3.org/1999/xlink" x="0px" y="0px"
	 viewBox="0 0 720 720" style="enable-background:new 0 0 720 720;" xml:space="preserve">
<style type="text/css">
	.st0{fill:#BFBFBF;}
	.st1{fill:#D39A62;}
	.st2{fill:#F5C99E;}
	.st3{fill:#DC965A;}
	.st4{fill:#BA1700;}
	.st5{fill:#CB0F0C;}
	.st6{fill:#FF4C38;}
	.st7{fill:#FF9488;}
	.st8{fill:#FF7060;}
	.st9{fill:#B89777;}
	.st10{fill:#FF513F;}
	.st11{fill:#BF392A;}
	.st12{fill:#7B654F;}
</style>
<circle class="st0" cx="360" cy="359" r="353"/>
<polyline class="st0" points="186,438.6 402,222.3 423.6,246.2 235.2,444.6 186,438.6 "/>
<polygon class="st1" points="170.4,511.7 165.3,444.4 253.4,521.6 260,589.3 "/>
<polygon class="st2" points="165.3,444.4 253.4,521.6 589.8,332.3 503.2,268.9 "/>
<polygon class="st3" points="253.4,521.6 260,589.3 589.8,400 589.8,332.3 "/>
<path class="st4" d="M279.3,218.7c0,0-10.7,41.7,47.3,37.7c0,0,46.3-4.7,38.7-37.7C365.3,218.7,322.7,266.7,279.3,218.7z"/>
<path class="st5" d="M273.8,191.8l4.7,80.8c0,0,10.3,31.2,61.8,39.1c0,0,55.1,3.9,71.5-20.9c0,0,20.7-17.1,20.4-26.9l0-77.5
	C432.1,186.4,354.6,270.8,273.8,191.8z"/>
<ellipse class="st6" cx="352.1" cy="185.3" rx="79.9" ry="41.6"/>
<polygon class="st7" points="310.3,149.8 372.6,225.5 394,220.7 326.7,145.8 "/>
<polyline class="st8" points="372.6,225.5 366.2,311 379.3,308.9 394,220.7 "/>
<polygon class="st9" points="313.8,388.1 387.2,448.8 443,416.1 408.2,376.7 "/>
<path class="st10" d="M313,303.4c0,0,48.2,15.3,88.9-5.8c0,0-18.4,40.6,4.4,76.8c0,0,2.9,6.2,1.5,13.5c0,0-47,51.7-93.9,0
	C313.8,387.8,348.5,331.4,313,303.4z"/>
<path class="st11" d="M366.2,311c0,0-9.9,75.1,19,93.3l8.9-5.1c0,0-29.5-41.8-14.7-90.2L366.2,311z"/>
<polygon class="st12" points="387.2,448.8 389.9,514.7 450.7,479.7 443,416.1 "/>
<g>
</g>
<g>
</g>
<g>
</g>
<g>
</g>
<g>
</g>
<g>
</g>
<g>
</g>
<g>
</g>
<g>
</g>
<g>
</g>
<g>
</g>
<g>
</g>
<g>
</g>
<g>
</g>
<g>
</g>
</svg>
