<?xml version="1.0" encoding="utf-8"?>
<!-- Generator: Adobe Illustrator 18.1.1, SVG Export Plug-In . SVG Version: 6.00 Build 0)  -->
<!DOCTYPE svg PUBLIC "-//W3C//DTD SVG 1.1//EN" "http://www.w3.org/Graphics/SVG/1.1/DTD/svg11.dtd">
<svg version="1.1" xmlns="http://www.w3.org/2000/svg" xmlns:xlink="http://www.w3.org/1999/xlink" x="0px" y="0px"
	 viewBox="0 0 720 720" style="enable-background:new 0 0 720 720;" xml:space="preserve">
<style type="text/css">
	.st0{fill:#BFBFBF;}
	.st1{fill:#FFA100;}
	.st2{fill:#FFF6DD;}
	.st3{fill:#403E37;}
	.st4{fill:#C36163;}
	.st5{fill:#FFB433;}
	.st6{fill:#BF7900;}
	.st7{fill:#F2F2F2;}
	.st8{fill:#DBA0A1;}
</style>
<g id="Layer_1">
	<circle class="st0" cx="360" cy="360" r="353"/>
	<polyline class="st0" points="186,439.6 402,223.3 423.6,247.2 235.2,445.6 186,439.6 	"/>
</g>
<g id="Layer_2">
	<polygon class="st1" points="186,439.6 402,223.3 497.3,328.7 284.5,546.7 284.5,496 235.2,496 235.2,445.6 	"/>
	<polygon class="st2" points="186,439.6 139.1,589 284.5,546.7 284.5,496 235.2,496 235.2,445.6 	"/>
	<polygon points="155.4,537.1 186,575.4 139.1,589 	"/>
	<polygon class="st3" points="402,223.3 448,179 549,281 497.3,328.7 	"/>
	<path class="st4" d="M448,179l49.3-48.9c0,0,77.7,20.7,100.7,97.9l-49,53L448,179z"/>
	<polygon class="st5" points="186,439.6 402,223.3 429.6,253.8 235.2,445.6 	"/>
	<polyline class="st6" points="284.5,496 475.5,304.5 497.3,328.7 284.5,546.7 284.5,496 	"/>
	<polygon class="st7" points="432.2,194.2 533.4,295.3 515.4,312 414.5,211.2 	"/>
	<path class="st8" d="M477.7,209l55.8-62.5c0,0-17.4-12.5-36.1-16.4L448,179L477.7,209z"/>
</g>
</svg>
