<?xml version="1.0" encoding="utf-8"?>
<!-- Generator: Adobe Illustrator 18.1.1, SVG Export Plug-In . SVG Version: 6.00 Build 0)  -->
<!DOCTYPE svg PUBLIC "-//W3C//DTD SVG 1.1//EN" "http://www.w3.org/Graphics/SVG/1.1/DTD/svg11.dtd">
<svg version="1.1" id="Layer_1" xmlns="http://www.w3.org/2000/svg" xmlns:xlink="http://www.w3.org/1999/xlink" x="0px" y="0px"
	 viewBox="0 0 272.9 288.6" style="enable-background:new 0 0 272.9 288.6;" xml:space="preserve">
<style type="text/css">
	.st0{fill:#A2B1DB;}
	.st1{fill:none;stroke:#A2B1DB;stroke-miterlimit:10;}
	.st2{fill:none;}
	.st3{fill:#9C9BA9;}
</style>
<path class="st0" d="M55.5,20.7v77.8v105.8c0,0-0.5,47.6,60.8,32.5v-27.9c0,0-27.6,17.3-26.9-21.1V96.2c0,0,35-18.6,43.4,15.3v125.2
	h30L162,108.3c0,0-9.6-65.9-67-44.4V9.7L55.5,20.7z"/>
<path class="st0" d="M155.8,63.9v30c0,0,30.7-12.4,37.8,17.7v125.2h30l-0.8-128.4C222.8,108.4,213.2,41.8,155.8,63.9z"/>
<path class="st0" d="M156.8,63.4c0,0-8.9,4.2-12.5,11.7l12.5,18.8"/>
<path class="st0" d="M245.7,206v27.9c-8.4,2.4-22.5,2.9-22.5,2.9V205C230.4,215.3,245.7,206,245.7,206z"/>
<g>
	<g>
		<path class="st0" d="M154.2,98.9c9.6-5.6,22.8-7.7,31.4,1c3.9,4,5.2,9.4,6.3,14.7c1.3,6.3,2.1,12.7,3,19.2c0.4,3.1,5.4,3.2,5,0
			c-1.6-12.7-1.8-30.3-12.6-39.1c-10.5-8.5-24.7-6.5-35.6-0.1C148.9,96.2,151.4,100.6,154.2,98.9L154.2,98.9z"/>
	</g>
</g>
<g>
	<g>
		<path class="st0" d="M151.5,92.6c3.2,0,3.2-5,0-5C148.2,87.6,148.2,92.6,151.5,92.6L151.5,92.6z"/>
	</g>
</g>
<g>
	<g>
		<path class="st0" d="M85.5,101.4c4.3-4.6,8.5-8.3,15-9c6-0.6,12.3-0.3,17.7,2.6c9.7,5.4,16.3,19.5,15.7,30.4c-0.2,3.2,4.8,3.2,5,0
			c0.7-13.1-7.4-29.5-19.5-35.4c-6.3-3.1-13.9-3.4-20.7-2.4c-7.1,1-11.9,5.2-16.7,10.2C79.7,100.2,83.3,103.7,85.5,101.4L85.5,101.4
			z"/>
	</g>
</g>
<path class="st1" d="M116.4,236.7l16.5-12.5v-24.9l-16.5,9.5c-21.1,12.2-24.5-4.5-24.5-4.5l15-5.8V59.4v-43L95,9.7"/>
<line class="st1" x1="132.9" y1="199.3" x2="106.8" y2="198.6"/>
<polygon class="st0" points="193.7,236.8 245.7,236.7 245.7,206 "/>
<path class="st1" d="M162.8,236.7l12.4-7.1v-122c0,0-1.8-21.3-12.8-17.4"/>
<path class="st1" d="M223.2,205l11.3-5.7v-91.7c0,0-5.3-38.9-44.7-46.3"/>
<path class="st1" d="M234.5,199.3c0,0,8.6,5,18.2-0.7l-6.9,7.4"/>
<polyline class="st1" points="252.7,198.6 252.7,226.1 245.7,236.7 "/>
<g>
	<rect x="63.9" y="245.6" class="st2" width="219.8" height="36.3"/>
	<path class="st3" d="M78.8,248h-5.9v21.8h-2.6V248h-5.9v-2.4h14.5V248z"/>
	<path class="st3" d="M88.9,263.1h-6.8l-1.9,6.8h-2.6l7.3-24.6h1.4l7.3,24.6h-2.7L88.9,263.1z M82.7,260.8h5.5l-2.1-7.5l-0.6-3.7
		h-0.1l-0.7,3.7L82.7,260.8z"/>
	<path class="st3" d="M107.5,258.7h-8.9v11.2H96v-24.2h2.6v10.6h8.9v-10.6h2.6v24.2h-2.6V258.7z"/>
	<path class="st3" d="M115,245.6h2.6v24.2H115V245.6z"/>
	<path class="st3" d="M126.2,254.5l-1.5-3.8h-0.1l0.4,3.8v15.3h-2.5v-24.6h1.6l9,15.7l1.4,3.6h0.1l-0.4-3.6v-15.3h2.5v24.6h-1.6
		L126.2,254.5z"/>
	<path class="st3" d="M141.6,245.6h2.6v24.2h-2.6V245.6z"/>
	<path class="st3" d="M171.5,253.9l0.3-3.7h-0.1l-1.1,3.4l-4.9,10.5h-0.9l-5.1-10.5l-1.1-3.4h-0.1l0.5,3.7v15.9h-2.5v-24.2h2.2
		l5.8,11.9l0.9,2.8h0.1l0.8-2.9l5.5-11.9h2.3v24.2h-2.6V253.9z"/>
	<path class="st3" d="M177.8,257.7c0-4.1,0.7-7.2,2-9.3c1.3-2.1,3.3-3.2,6-3.2c1.5,0,2.7,0.3,3.7,0.9s1.8,1.4,2.5,2.5
		c0.6,1.1,1.1,2.4,1.4,3.9c0.3,1.5,0.4,3.3,0.4,5.2c0,4.1-0.7,7.2-2,9.3s-3.3,3.2-6,3.2c-1.4,0-2.7-0.3-3.7-0.9s-1.8-1.4-2.5-2.5
		c-0.6-1.1-1.1-2.4-1.4-3.9C177.9,261.4,177.8,259.6,177.8,257.7z M180.5,257.7c0,1.4,0.1,2.7,0.3,3.9c0.2,1.2,0.5,2.3,0.9,3.2
		c0.4,0.9,1,1.7,1.6,2.2s1.5,0.8,2.4,0.8c1.7,0,3-0.8,3.9-2.5c0.9-1.7,1.3-4.2,1.3-7.6c0-1.3-0.1-2.6-0.3-3.8
		c-0.2-1.2-0.5-2.3-0.9-3.2c-0.4-0.9-1-1.7-1.6-2.2s-1.5-0.8-2.5-0.8c-1.7,0-3,0.8-3.9,2.5C181,251.8,180.5,254.3,180.5,257.7z"/>
	<path class="st3" d="M198,245.6h2.6v24.2H198V245.6z"/>
	<path class="st3" d="M218.3,248h-5.9v21.8h-2.6V248h-5.9v-2.4h14.5V248z"/>
	<path class="st3" d="M221,245.9c0.8-0.2,1.6-0.3,2.5-0.4c0.9-0.1,1.7-0.1,2.5-0.1c0.9,0,1.8,0.1,2.6,0.3c0.8,0.2,1.5,0.6,2.1,1.1
		c0.6,0.5,1.1,1.2,1.4,2c0.4,0.8,0.5,1.9,0.5,3.2c0,1.9-0.4,3.4-1.2,4.6s-1.8,1.9-3.2,2.3l1.3,1.3l4.8,9.6h-3l-5.2-10.5l-2.6-0.5
		v11.1H221V245.9z M223.6,257h2.1c1.3,0,2.4-0.4,3.1-1.2c0.8-0.8,1.1-2,1.1-3.7c0-1.3-0.3-2.3-1-3.1s-1.6-1.2-2.8-1.2
		c-0.5,0-0.9,0-1.4,0.1s-0.9,0.1-1.1,0.2V257z"/>
	<path class="st3" d="M246.1,263.1h-6.8l-1.9,6.8h-2.6l7.3-24.6h1.4l7.3,24.6H248L246.1,263.1z M239.9,260.8h5.5l-2.1-7.5l-0.6-3.7
		h-0.1l-0.7,3.7L239.9,260.8z"/>
</g>
<g>
</g>
<path class="st0" d="M38.2,63.4h-29c0,0-10,49.6,54.6,35.6V68.4C63.9,68.4,46.3,83.6,38.2,63.4z"/>
<polygon class="st1" points="10.7,63.4 30.2,58.6 49.7,59.4 38.2,63.4 "/>
<path class="st1" d="M50.9,58.6c0,0-2,12.6,9.3,8.9"/>
</svg>
