<?xml version="1.0" encoding="utf-8"?>
<!-- Generator: Adobe Illustrator 18.1.1, SVG Export Plug-In . SVG Version: 6.00 Build 0)  -->
<!DOCTYPE svg PUBLIC "-//W3C//DTD SVG 1.1//EN" "http://www.w3.org/Graphics/SVG/1.1/DTD/svg11.dtd">
<svg version="1.1" xmlns="http://www.w3.org/2000/svg" xmlns:xlink="http://www.w3.org/1999/xlink" x="0px" y="0px"
	 viewBox="0 0 720 720" style="enable-background:new 0 0 720 720;" xml:space="preserve">
<style type="text/css">
	.st0{fill:#BFBFBF;}
	.st1{fill:#E5E7E9;}
	.st2{fill:#2D3F51;}
	.st3{fill:#051821;}
	.st4{opacity:0.53;fill:#2DCC6F;}
	.st5{opacity:0.53;fill:#CCC5AE;}
	.st6{opacity:0.53;fill:#D46159;}
	.st7{fill:#FFFFFF;stroke:#BFBFBF;stroke-miterlimit:10;}
	.st8{fill:#1E6485;}
	.st9{fill:#FAFAFB;stroke:#BFBFBF;stroke-miterlimit:10;}
	.st10{stroke:#BFBFBF;stroke-miterlimit:10;}
	.st11{stroke:#BFBFBF;stroke-width:2;stroke-miterlimit:10;}
</style>
<g id="Layer_1">
	<circle class="st0" cx="360" cy="360" r="353"/>
</g>
<g id="Layer_3">
	<path class="st1" d="M493.6,327.6h-261c-6.6,0-12-5.4-12-12v-54c0-6.6,5.4-12,12-12h261c6.6,0,12,5.4,12,12v54
		C505.6,322.2,500.2,327.6,493.6,327.6z"/>
	<path class="st2" d="M501.8,249.6H230.3c-5.4,0-9.7-4.4-9.7-9.7v0c0-5.4,4.4-9.7,9.7-9.7h271.5c5.4,0,9.7,4.4,9.7,9.7v0
		C511.6,245.2,507.2,249.6,501.8,249.6z"/>
	<rect x="136.6" y="482.1" class="st3" width="462" height="15"/>
	<path class="st1" d="M594.1,507.1H136.6c-6.6,0-12-5.4-12-12V364.6c0-6.6,5.4-12,12-12h457.5c6.6,0,12,5.4,12,12v130.5
		C606.1,501.7,600.7,507.1,594.1,507.1z"/>
	<ellipse class="st4" cx="168.9" cy="371.8" rx="9.7" ry="8.2"/>
	<ellipse class="st5" cx="168.9" cy="413.5" rx="9.7" ry="8.6"/>
	<ellipse class="st6" cx="168.9" cy="449.1" rx="9.7" ry="9"/>
	<path class="st2" d="M429.6,363.6H299.5c-3.8,0-6.9-3.1-6.9-6.9v0c0-3.8,3.1-6.9,6.9-6.9h130.1c3.8,0,6.9,3.1,6.9,6.9v0
		C436.6,360.5,433.5,363.6,429.6,363.6z"/>
	<path class="st3" d="M493.6,482.1h-261c-6.6,0-12-5.4-12-12v-36c0-6.6,5.4-12,12-12h261c6.6,0,12,5.4,12,12v36
		C505.6,476.7,500.2,482.1,493.6,482.1z"/>
	<rect x="265.6" y="464.1" class="st7" width="205.5" height="87"/>
	<path class="st8" d="M570.1,335h-420c-6.6,0-12-5.4-12-12v-7.4c0-6.6,5.4-12,12-12h420c6.6,0,12,5.4,12,12v7.4
		C582.1,329.6,576.7,335,570.1,335z"/>
	<rect x="253.6" y="213.6" class="st9" width="217.5" height="99"/>
	<line x1="293" y1="478" x2="442" y2="478"/>
	<line x1="293" y1="497" x2="442" y2="497"/>
	<line class="st10" x1="293" y1="515.5" x2="442" y2="515.5"/>
	<line class="st11" x1="291" y1="531" x2="440" y2="531"/>
	<g>
	</g>
	<g>
	</g>
	<g>
	</g>
	<g>
	</g>
	<g>
	</g>
	<g>
	</g>
	<g>
	</g>
	<g>
	</g>
	<g>
	</g>
	<g>
	</g>
	<g>
	</g>
	<g>
	</g>
	<g>
	</g>
	<g>
	</g>
	<g>
	</g>
</g>
</svg>
